<svg width="16" height="16" viewBox="0 0 16 16" fill="none" xmlns="http://www.w3.org/2000/svg">
<circle cx="8" cy="8" r="8" fill="#E0FF4F"/>
<path d="M6.00327 4C6.79816 4 7.35872 4.41433 7.70212 5.15335L9.79944 9.71873C10.331 10.8731 11.3332 10.7418 11.3332 10.7418C11.3332 11.3921 10.7915 12 9.99563 12C9.19979 12 8.64018 11.5847 8.29683 10.8457L6.19851 6.28128C5.66896 5.12789 4.6658 5.25817 4.6658 5.25817V11.8849H3V7.15812C3 5.35828 4.65667 5.25855 4.6658 5.25817C4.6658 4.60786 5.20844 4 6.00327 4ZM13 8.84189C13 10.6464 11.3351 10.7417 11.3332 10.7418V4.11512H13V8.84189Z" fill="#052B42"/>
</svg>
